<svg width="20" height="20" viewBox="0 0 20 20" fill="none" xmlns="http://www.w3.org/2000/svg">
<path d="M9.07184 2.80556C10.2752 2.80446 11.4519 3.1603 12.4531 3.82808C13.4542 4.49586 14.2348 5.44556 14.6961 6.55705C15.1573 7.66853 15.2786 8.89186 15.0445 10.0723C14.8104 11.2527 14.2315 12.3372 13.3809 13.1885C12.5304 14.0398 11.4464 14.6197 10.2662 14.8549C9.08603 15.0901 7.86259 14.97 6.75068 14.5097C5.63878 14.0494 4.68836 13.2697 4.01967 12.2692C3.35098 11.2687 2.99406 10.0923 2.99406 8.88889C3.00135 7.2787 3.64385 5.73645 4.78192 4.59734C5.91999 3.45823 7.46165 2.81432 9.07184 2.80556ZM9.07184 1.66667C7.64341 1.66667 6.24707 2.09024 5.05938 2.88383C3.87169 3.67742 2.946 4.80538 2.39937 6.12506C1.85274 7.44475 1.70971 8.8969 1.98839 10.2979C2.26706 11.6988 2.95491 12.9857 3.96495 13.9958C4.975 15.0058 6.26188 15.6937 7.66285 15.9723C9.06382 16.251 10.516 16.108 11.8357 15.5614C13.1553 15.0147 14.2833 14.089 15.0769 12.9013C15.8705 11.7137 16.2941 10.3173 16.2941 8.88889C16.2941 6.97344 15.5331 5.13644 14.1787 3.78201C12.8243 2.42758 10.9873 1.66667 9.07184 1.66667Z" fill="#121212"/>
<path d="M19.4439 18.4944L15.3494 14.3722L14.5605 15.1556L18.655 19.2778C18.7064 19.3296 18.7676 19.3707 18.8349 19.3989C18.9022 19.4271 18.9745 19.4417 19.0475 19.442C19.1205 19.4422 19.1928 19.4281 19.2603 19.4004C19.3279 19.3727 19.3893 19.332 19.4411 19.2806C19.4929 19.2291 19.5341 19.168 19.5622 19.1006C19.5904 19.0333 19.605 18.9611 19.6053 18.8881C19.6056 18.8151 19.5914 18.7427 19.5637 18.6752C19.536 18.6077 19.4953 18.5462 19.4439 18.4944Z" fill="#121212"/>
</svg>
