<svg width="18" height="18" viewBox="0 0 18 18" fill="none" xmlns="http://www.w3.org/2000/svg">
<path d="M9.00074 17.0167C8.87799 17.0163 8.75882 16.9753 8.66185 16.9C5.57296 14.5 3.44519 12.4333 1.9563 10.3944C0.0562956 7.78889 -0.377038 5.38333 0.667407 3.24445C1.41185 1.71667 3.55074 0.466668 6.05074 1.19445C7.24271 1.53875 8.28268 2.2771 9.00074 3.28889C9.71881 2.2771 10.7588 1.53875 11.9507 1.19445C14.4452 0.477779 16.5896 1.71667 17.3341 3.24445C18.3785 5.38333 17.9452 7.78889 16.0452 10.3944C14.5563 12.4333 12.4285 14.5 9.33963 16.9C9.24266 16.9753 9.12349 17.0163 9.00074 17.0167V17.0167ZM4.62852 2.1C4.03366 2.07685 3.44373 2.21614 2.92204 2.50292C2.40036 2.7897 1.96663 3.21313 1.66741 3.72778C0.806296 5.49445 1.19518 7.46111 2.8563 9.73333C4.62161 12.0103 6.68875 14.0363 9.00074 15.7556C11.3124 14.038 13.3795 12.0139 15.1452 9.73889C16.8119 7.46111 17.1952 5.49445 16.3341 3.73333C15.7785 2.62222 14.1119 1.73889 12.2563 2.26111C11.6613 2.43695 11.1097 2.7354 10.6371 3.13727C10.1644 3.53913 9.78111 4.03551 9.51185 4.59445C9.47 4.69634 9.39879 4.78349 9.30729 4.84483C9.21579 4.90616 9.10812 4.93891 8.99796 4.93891C8.88781 4.93891 8.78014 4.90616 8.68864 4.84483C8.59713 4.78349 8.52593 4.69634 8.48407 4.59445C8.21684 4.03411 7.8342 3.53657 7.36124 3.13446C6.88827 2.73234 6.33566 2.43472 5.73963 2.26111C5.37851 2.15622 5.00456 2.102 4.62852 2.1V2.1Z" fill="#121212"/>
</svg>
